<svg width="16" height="16" viewBox="0 0 16 16" fill="none" xmlns="http://www.w3.org/2000/svg">
<path fill-rule="evenodd" clip-rule="evenodd" d="M15.1898 0.856377L0.654485 9.10834C0.0557777 9.44523 0.0795421 9.94474 0.708913 10.2136L2.56253 11.0077C3.18807 11.2732 4.13711 11.128 4.67066 10.6774L12.7314 3.79954C13.2611 3.34566 13.3186 3.4137 12.8571 3.94806L6.48518 11.3321C6.02292 11.8631 6.16168 12.5145 6.78951 12.7809L7.00646 12.8705C7.63507 13.1343 8.66153 13.5749 9.28477 13.8537L11.3446 14.7582C11.9709 15.0337 12.4799 15.2635 12.483 15.2668C12.483 15.2701 12.4861 15.2826 12.4891 15.2826C12.4914 15.2859 12.6386 14.7092 12.8149 14.0056L15.9533 1.52018C16.1304 0.817378 15.7855 0.518664 15.1898 0.856377" fill="white"/>
</svg>
